<svg width="180" height="180" viewBox="0 0 180 180" fill="none" xmlns="http://www.w3.org/2000/svg">
<g opacity="0.2">
<circle cx="90" cy="90.0001" r="63" transform="rotate(-46.425 90 90.0001)" fill="#5398E9" fill-opacity="0.25"/>
<g clip-path="url(#clip0)">
<path d="M88.4395 37.8773L82.2005 44.4346C81.3525 45.3259 81.3875 46.7333 82.2788 47.5813L83.8913 49.1155L71.3352 62.3122C68.8269 61.1981 65.7878 61.6847 63.7903 63.7842C61.7928 65.8836 61.4579 68.9431 62.6953 71.3929L50.1392 84.5896L48.5268 83.0554C47.6355 82.2074 46.2281 82.2424 45.3801 83.1337L39.1411 89.691C38.2931 90.5823 38.3281 91.9897 39.2194 92.8376L45.6692 98.9744C46.5605 99.8224 47.9679 99.7874 48.8159 98.8961L55.0549 92.3388C55.9029 91.4475 55.8679 90.0401 54.9766 89.1921L53.3427 87.6375L59.6434 81.0152C57.815 89.9374 60.4444 99.4693 66.9019 106.454C65.6944 108.991 66.1534 112.115 68.2969 114.154C70.9643 116.692 75.1989 116.587 77.7368 113.92C80.2748 111.252 80.1694 107.018 77.502 104.48C75.4445 102.522 72.4616 102.154 70.0372 103.304C62.8934 95.4592 61.5213 83.9607 66.7579 74.7647C69.0799 75.4406 71.6861 74.859 73.4651 72.9893C75.244 71.1196 75.6953 68.4876 74.9049 66.2021C83.829 60.5146 95.3815 61.3133 103.572 68.0581C102.544 70.5369 103.06 73.4978 105.117 75.4554C107.785 77.9934 112.019 77.888 114.557 75.2206C117.095 72.5531 116.99 68.3186 114.322 65.7807C112.179 63.7412 109.036 63.4381 106.562 64.7703C99.265 58.6681 89.6356 56.5363 80.8154 58.8061L87.1162 52.1838L88.7286 53.718C89.6199 54.566 91.0273 54.531 91.8753 53.6397L98.1143 47.0824C98.9623 46.1911 98.9273 44.7838 98.036 43.9358L91.5862 37.799C90.6949 36.951 89.2875 36.986 88.4395 37.8773Z" fill="#5398E9"/>
<path d="M127.267 103.278C123.883 101.666 119.595 102.215 116.874 105.075L107.669 114.749C104.949 117.609 104.613 121.919 106.392 125.218C107.077 126.49 108.888 126.6 109.884 125.553L127.774 106.749C128.77 105.702 128.571 103.9 127.267 103.278Z" fill="#5398E9"/>
<path d="M110.415 81.0122L79.4561 75.6173L94.7534 90.172C97.2032 88.9347 100.263 89.2695 102.362 91.2671C105.03 93.805 105.135 98.0395 102.597 100.707C100.059 103.374 95.8245 103.48 93.157 100.942C91.0576 98.9443 90.571 95.9052 91.685 93.3969L76.3877 78.8422L83.3153 109.495C83.5485 110.53 84.4814 111.255 85.5416 111.229C91.3182 111.085 96.9319 112.821 101.717 115.983C102.329 114.431 103.225 112.962 104.444 111.681L113.649 102.006C114.869 100.725 116.29 99.7566 117.81 99.0687C114.414 94.4462 112.402 88.9261 112.258 83.1495C112.231 82.0893 111.46 81.1937 110.415 81.0122Z" fill="#5398E9"/>
<path d="M96.147 94.5702C95.3005 95.4598 95.3356 96.8703 96.2252 97.7168C97.1149 98.5633 98.5254 98.5282 99.3719 97.6385C100.218 96.7489 100.183 95.3383 99.2936 94.4919C98.404 93.6454 96.9934 93.6805 96.147 94.5702Z" fill="#5398E9"/>
</g>
</g>
<defs>
<clipPath id="clip0">
<rect width="75.9706" height="75.9706" fill="white" transform="translate(37.6069 91.3035) rotate(-46.425)"/>
</clipPath>
</defs>
</svg>
