<svg width="178" height="177" viewBox="0 0 178 177" fill="none" xmlns="http://www.w3.org/2000/svg">
<g opacity="0.2">
<ellipse rx="65.1302" ry="65.5056" transform="matrix(0.890257 -0.455459 0.448469 0.893799 88.9999 88.7268)" fill="#5398E9" fill-opacity="0.25"/>
<g clip-path="url(#clip0)">
<path d="M105.484 37.0122L97.1532 41.274C96.021 41.8533 95.569 43.2471 96.1427 44.3904L97.1805 46.4589L80.4156 55.0359C78.3617 53.0675 75.239 52.4854 72.5719 53.8499C69.9049 55.2144 68.5227 58.1012 68.8796 60.9377L52.1148 69.5147L51.0769 67.4462C50.5032 66.3029 49.1228 65.8465 47.9906 66.4258L39.6603 70.6876C38.528 71.2669 38.076 72.6607 38.6497 73.804L42.8011 82.0778C43.3748 83.2211 44.7552 83.6775 45.8874 83.0983L54.2177 78.8365C55.35 78.2572 55.802 76.8633 55.2283 75.72L54.1766 73.624L62.5895 69.32C57.7305 77.4415 56.9951 87.7162 60.8612 96.8248C58.811 98.8946 58.1784 102.122 59.558 104.871C61.2749 108.293 65.4282 109.666 68.8169 107.933C72.2056 106.199 73.5656 102.005 71.8487 98.5833C70.5244 95.944 67.7513 94.5426 64.997 94.8264C60.7609 84.6334 63.3979 72.8665 71.665 65.6647C73.6891 67.1379 76.4238 67.4757 78.7991 66.2606C81.1743 65.0454 82.522 62.619 82.5428 60.0996C93.1833 57.628 104.139 62.4407 109.773 71.9186C107.918 73.9935 107.396 77.0801 108.721 79.7195C110.438 83.1412 114.591 84.5145 117.98 82.7808C121.368 81.0472 122.728 76.8533 121.011 73.4315C119.632 70.6819 116.681 69.2883 113.815 69.7334C108.828 61.1981 100.203 55.7473 90.8434 54.8998L99.2562 50.5958L100.294 52.6642C100.868 53.8075 102.248 54.2639 103.38 53.6847L111.711 49.4229C112.843 48.8436 113.295 47.4497 112.721 46.3064L108.57 38.0326C107.996 36.8893 106.616 36.4329 105.484 37.0122Z" fill="#5398E9"/>
<path d="M120.646 114.757C117.914 111.995 113.555 111.039 109.922 112.897L97.6315 119.185C93.9989 121.044 92.1842 125.158 92.7739 129.017C93.0013 130.505 94.7235 131.244 96.0536 130.563L119.941 118.342C121.271 117.662 121.7 115.823 120.646 114.757Z" fill="#5398E9"/>
<path d="M111.952 87.0219L83.7159 70.9295L93.562 90.5527C96.3711 90.1923 99.23 91.5879 100.581 94.2811C102.298 97.7028 100.938 101.897 97.5495 103.63C94.1608 105.364 90.0075 103.991 88.2906 100.569C86.9393 97.8759 87.5158 94.7227 89.4651 92.6487L79.619 73.0255L75.7684 105.534C75.6377 106.631 76.2941 107.669 77.334 108.012C82.9998 109.886 87.8581 113.548 91.4187 118.321C92.5492 117.01 93.9278 115.881 95.5556 115.048L107.846 108.76C109.474 107.927 111.191 107.472 112.906 107.327C111.201 101.605 111.15 95.4839 113.006 89.7627C113.346 88.7127 112.906 87.5646 111.952 87.0219Z" fill="#5398E9"/>
<path d="M93.3981 95.3568C92.2679 95.935 91.8148 97.332 92.3875 98.4732C92.9601 99.6145 94.3436 100.072 95.4738 99.4937C96.604 98.9155 97.057 97.5185 96.4844 96.3772C95.9117 95.236 94.5283 94.7786 93.3981 95.3568Z" fill="#5398E9"/>
</g>
</g>
<defs>
<clipPath id="clip0">
<rect width="78.5394" height="78.9921" fill="white" transform="matrix(0.890257 -0.455458 0.448469 0.893798 37.6118 71.7356)"/>
</clipPath>
</defs>
</svg>
