<svg width="414" height="439" viewBox="0 0 414 439" fill="none" xmlns="http://www.w3.org/2000/svg">
<g opacity="0.2">
<circle cx="156" cy="181" r="258" fill="#5398E9" fill-opacity="0.25"/>
<g clip-path="url(#clip0)">
<path d="M306.238 29.2354H269.171C264.133 29.2354 260.057 33.3121 260.057 38.3501V47.4649H185.46C181.684 36.8784 171.662 29.2354 159.794 29.2354C147.927 29.2354 137.904 36.8784 134.129 47.4649H59.5317V38.3501C59.5317 33.3121 55.4549 29.2354 50.4169 29.2354H13.3501C8.31209 29.2354 4.23535 33.3121 4.23535 38.3501V74.8092C4.23535 79.8473 8.31209 83.924 13.3501 83.924H50.4169C55.4549 83.924 59.5317 79.8473 59.5317 74.8092V65.5729H96.9654C65.3329 85.3344 44.4753 120.043 41.9821 158.917C31.0455 162.497 23.0726 172.678 23.0726 184.794C23.0726 199.872 35.3386 212.139 50.4169 212.139C65.4951 212.139 77.7612 199.872 77.7612 184.794C77.7612 173.164 70.4323 163.275 60.1758 159.329C63.2857 115.989 93.5273 79.459 135.593 69.0365C140.143 77.8335 149.225 83.924 159.794 83.924C170.363 83.924 179.446 77.8335 183.995 69.0365C226.061 79.4584 256.303 115.988 259.413 159.329C249.156 163.275 241.827 173.164 241.827 184.794C241.827 199.872 254.093 212.139 269.171 212.139C284.25 212.139 296.516 199.872 296.516 184.794C296.516 172.678 288.543 162.497 277.606 158.917C275.113 120.043 254.255 85.4559 222.623 65.6945H260.057V74.8092C260.057 79.8473 264.133 83.924 269.171 83.924H306.238C311.276 83.924 315.353 79.8473 315.353 74.8092V38.3501C315.353 33.3121 311.276 29.2354 306.238 29.2354Z" fill="#5398E9"/>
<path d="M221.805 329.048C217.037 314.458 203.302 303.286 187.138 303.286H132.45C116.286 303.286 102.551 314.458 97.783 329.048C95.9448 334.673 100.73 340.353 106.649 340.353H212.939C218.857 340.353 223.643 334.673 221.805 329.048Z" fill="#5398E9"/>
<path d="M240.296 216.197L168.909 109.116V195.588C179.495 199.363 187.138 209.386 187.138 221.253C187.138 236.331 174.872 248.597 159.794 248.597C144.716 248.597 132.449 236.331 132.449 221.253C132.449 209.386 140.093 199.363 150.679 195.588V109.116L79.2921 216.197C76.8797 219.811 77.3604 224.627 80.4315 227.698C97.1644 244.431 107.86 265.987 111.988 289.11C118.32 286.542 125.206 285.057 132.449 285.057H187.138C194.381 285.057 201.268 286.541 207.6 289.109C211.727 265.985 222.423 244.431 239.156 227.698C242.227 224.627 242.708 219.811 240.296 216.197Z" fill="#5398E9"/>
<path d="M159.794 212.138C154.765 212.138 150.679 216.224 150.679 221.253C150.679 226.282 154.765 230.368 159.794 230.368C164.823 230.368 168.909 226.282 168.909 221.253C168.909 216.224 164.823 212.138 159.794 212.138Z" fill="#5398E9"/>
</g>
</g>
<defs>
<clipPath id="clip0">
<rect width="311.118" height="311.118" fill="white" transform="translate(4.23535 29.2354)"/>
</clipPath>
</defs>
</svg>
