<svg width="193" height="193" viewBox="0 0 193 193" fill="none" xmlns="http://www.w3.org/2000/svg">
<g opacity="0.2">
<g clip-path="url(#clip0)">
<path d="M137.288 75.1767L112.387 52.9903C108.183 49.2437 102.247 48.0116 96.8982 49.7745L65.2242 60.2156C59.865 61.9819 55.8233 66.5119 54.6762 72.0375L47.9076 104.64C46.7605 110.165 48.6649 115.93 52.878 119.683L77.7784 141.87C81.9841 145.617 87.9195 146.848 93.2676 145.085L124.942 134.644C130.301 132.878 134.343 128.348 135.49 122.822L142.258 90.2204C143.405 84.695 141.501 78.9305 137.288 75.1767ZM127.972 121.262C127.381 124.108 125.299 126.441 122.539 127.351L90.8644 137.792C88.109 138.701 85.0521 138.066 82.886 136.136L57.9856 113.949C55.8155 112.016 54.8345 109.047 55.4254 106.2L62.1939 73.5982C62.7848 70.7522 64.8666 68.4188 67.6272 67.509L99.3012 57.0679C102.057 56.1595 105.115 56.7949 107.28 58.7244L132.18 80.9107C134.35 82.8443 135.331 85.8134 134.74 88.6596L127.972 121.262Z" fill="#2BBC5D"/>
<path d="M92.1069 93.8184L80.599 79.1053C79.2929 77.4352 76.8799 77.1403 75.2098 78.447C73.5397 79.7537 73.245 82.1668 74.5513 83.837L83.2638 94.9763L70.8372 101.727C68.974 102.739 68.284 105.07 69.2957 106.933C70.3101 108.801 72.6431 109.484 74.5017 108.475L90.9152 99.5582C93.0033 98.424 93.5667 95.685 92.1069 93.8184Z" fill="#2BBC5D"/>
<path d="M113.371 109.629L96.4571 106.118C94.3811 105.687 92.3488 107.02 91.9177 109.097C91.4867 111.173 92.8201 113.206 94.8961 113.637L111.81 117.148C113.886 117.579 115.918 116.246 116.35 114.169C116.781 112.093 115.447 110.06 113.371 109.629Z" fill="#2BBC5D"/>
</g>
<circle cx="96.5" cy="96.5001" r="81.5" transform="rotate(11.7285 96.5 96.5001)" fill="#2BBC5D" fill-opacity="0.15"/>
</g>
<defs>
<clipPath id="clip0">
<rect width="98.2794" height="98.2794" fill="white" transform="translate(56.958 39.3274) rotate(11.7285)"/>
</clipPath>
</defs>
</svg>
