<svg width="389" height="379" viewBox="0 0 389 379" fill="none" xmlns="http://www.w3.org/2000/svg">
<g opacity="0.2">
<g clip-path="url(#clip0)">
<path d="M336.218 150.25L253.269 102.412C239.262 94.3332 221.857 94.3338 207.849 102.412L124.9 150.25C110.865 158.343 102.146 173.437 102.146 189.64V285.242C102.146 301.445 110.865 316.539 124.899 324.632L207.849 372.471C221.859 380.551 239.263 380.548 253.269 372.471L336.218 324.632C350.253 316.539 358.971 301.445 358.971 285.242V189.64C358.971 173.437 350.253 158.344 336.218 150.25ZM336.926 285.242C336.926 293.588 332.436 301.363 325.206 305.532L242.256 353.37C235.041 357.532 226.077 357.532 218.861 353.37L135.911 305.532C128.682 301.363 124.192 293.588 124.192 285.242V189.64C124.192 181.294 128.682 173.52 135.912 169.351L218.861 121.513C226.077 117.35 235.044 117.352 242.257 121.513L325.206 169.35C332.436 173.52 336.926 181.294 336.926 189.64V285.242Z" fill="#2BBC5D"/>
<path d="M220.084 229.025L179.146 194.38C174.499 190.447 167.543 191.026 163.611 195.674C159.679 200.322 160.259 207.278 164.906 211.211L195.9 237.441L164.906 263.671C160.259 267.604 159.679 274.56 163.611 279.208C167.553 283.866 174.51 284.425 179.146 280.502L220.084 245.856C225.292 241.449 225.277 233.42 220.084 229.025Z" fill="#2BBC5D"/>
<path d="M289.092 261.062H239.493C233.405 261.062 228.471 265.998 228.471 272.086C228.471 278.175 233.405 283.111 239.493 283.111H289.092C295.179 283.111 300.114 278.175 300.114 272.086C300.114 265.998 295.18 261.062 289.092 261.062Z" fill="#2BBC5D"/>
</g>
<circle cx="234" cy="234" r="234" fill="#2BBC5D" fill-opacity="0.15"/>
</g>
<defs>
<clipPath id="clip0">
<rect width="282.176" height="282.176" fill="white" transform="translate(89.4707 96.353)"/>
</clipPath>
</defs>
</svg>
