<svg width="287" height="287" viewBox="0 0 287 287" fill="none" xmlns="http://www.w3.org/2000/svg">
<g opacity="0.2">
<ellipse cx="143.5" cy="143.169" rx="102.5" ry="101.169" transform="rotate(-39.014 143.5 143.169)" fill="#BE49E8" fill-opacity="0.25"/>
<g clip-path="url(#clip0)">
<path d="M149.225 61.9389C108.549 94.8945 100.115 152.888 128.371 195.011C127.507 180.127 128.452 164.367 130.356 145.586C130.491 144.181 131.751 143.134 133.163 143.266C134.569 143.389 135.596 144.632 135.454 146.036C135.164 148.861 134.899 151.765 134.641 154.695C134.491 156.367 134.358 158.019 134.228 159.642C134.206 159.941 134.183 160.241 134.164 160.544C132.328 184.393 132.716 203.541 137.909 223.507C138.263 224.869 139.663 225.672 141.029 225.304C141.393 225.205 141.714 225.037 141.99 224.813C142.754 224.194 143.135 223.166 142.875 222.167C141.028 215.06 139.865 208.021 139.148 200.836C166.522 177.487 179.529 141.532 173.08 106.313C172.916 105.432 172.302 104.707 171.455 104.398C170.611 104.1 169.661 104.262 168.957 104.832L161.546 110.836L168.762 92.5731C168.99 91.9957 169.004 91.35 168.795 90.7733C165.02 80.2893 159.645 70.7094 152.826 62.2928C151.943 61.2027 150.329 61.0441 149.225 61.9389Z" fill="#BE49E8"/>
</g>
</g>
<defs>
<clipPath id="clip0">
<rect width="123.603" height="121.998" fill="white" transform="translate(59.189 134.885) rotate(-39.014)"/>
</clipPath>
</defs>
</svg>
