<svg width="272" height="272" viewBox="0 0 272 272" fill="none" xmlns="http://www.w3.org/2000/svg">
<g opacity="0.2">
<circle cx="136" cy="136" r="136" fill="#BE49E8" fill-opacity="0.25"/>
<path d="M209.75 56C140.289 56 83.155 109.437 77.1008 177.346C88.6423 161.069 102.781 145.407 120.431 127.401C121.743 126.048 123.916 126.021 125.262 127.354C126.609 128.672 126.629 130.839 125.31 132.185C122.652 134.891 119.953 137.7 117.24 140.542C115.689 142.162 114.172 143.775 112.682 145.36C112.409 145.654 112.135 145.948 111.862 146.248C90.0501 169.604 74.4563 189.933 63.1333 215.182C62.361 216.904 63.1333 218.927 64.8485 219.699C65.3063 219.904 65.7778 220 66.2493 220C67.5545 220 68.805 219.248 69.372 217.984C73.4038 208.999 78.0845 200.662 83.3463 192.55C131.07 191.327 174.51 164.78 197.279 122.536C197.846 121.477 197.818 120.199 197.203 119.16C196.582 118.135 195.467 117.5 194.265 117.5H181.61L204.303 104.53C205.021 104.12 205.574 103.457 205.841 102.678C210.706 88.5335 213.166 73.9785 213.166 59.4168C213.166 57.5308 211.636 56 209.75 56Z" fill="#BE49E8"/>
</g>
</svg>
